<?xml version="1.0" encoding="utf-8"?>
<!-- Generator: Adobe Illustrator 25.0.0, SVG Export Plug-In . SVG Version: 6.00 Build 0)  -->
<svg version="1.1" id="圖層_1" xmlns="http://www.w3.org/2000/svg" xmlns:xlink="http://www.w3.org/1999/xlink" x="0px" y="0px"
	 viewBox="0 0 107 150" style="enable-background:new 0 0 107 150;" xml:space="preserve">
<style type="text/css">
	.st0{fill-rule:evenodd;clip-rule:evenodd;fill:#EF392A;}
</style>
<desc>Created with Sketch.</desc>
<g id="Page-1">
	<path id="Fill-1" class="st0" d="M86.7,114c-2.2,0-4.2,2-4.6,4.5c-0.4,2.5,1.1,4.5,3.2,4.5c2.2,0,4.2-2,4.6-4.5
		C90.3,116,88.9,114,86.7,114L86.7,114z M75,144h7.9l5.1-19h-7.9L75,144z M50,143.9l8.5,0l3.3-4l1.2,4l7.9,0l-3.7-9.3l8.7-9.5
		l-8.5,0l-3.2,3.9l-1.2-3.9l-7.9,0l3.6,9.2L50,143.9z M39.5,138c-1.5,0-2.5-1.1-2.5-2.7c0-2.3,1.5-4.3,3.5-4.3
		c1.5,0,2.5,1.1,2.5,2.7C43,136,41.5,138,39.5,138L39.5,138z M38.6,145c6.6,0,11.4-5.3,11.4-11.1c0-5-3.5-8.9-9.6-8.9
		c-6.7,0-11.4,5.3-11.4,11.1C29,141.1,32.5,145,38.6,145L38.6,145z M7.6,150c4.1,0,6.9-1.6,9.9-6.4L29,125h-8.1l-5.6,10.1L14.7,125
		H7c0,0,1.7,18.6,1.6,18.7c-0.1,0.1-0.3,0.1-0.5,0.1h0c-1,0-2-0.3-3.1-1.1l-3,5.9C3.4,149.5,5.1,150,7.6,150L7.6,150z M107,0
		L91.7,57.3c-9.2,34.8-31.9,53.7-80.9,56.7L8.7,90.4c20.5-2.7,32-10.9,35.9-25.1h-38L0,0H107z"/>
</g>
</svg>
