<?xml version="1.0" encoding="utf-8"?>
<!-- Generator: Adobe Illustrator 25.0.0, SVG Export Plug-In . SVG Version: 6.00 Build 0)  -->
<svg version="1.1" id="圖層_1" xmlns="http://www.w3.org/2000/svg" xmlns:xlink="http://www.w3.org/1999/xlink" x="0px" y="0px"
	 viewBox="0 0 240 67" style="enable-background:new 0 0 240 67;" xml:space="preserve">
<style type="text/css">
	.st0{fill-rule:evenodd;clip-rule:evenodd;fill:#EF392A;}
</style>
<desc>Created with Sketch.</desc>
<g id="Page-1">
	<path id="Combined-Shape" class="st0" d="M98.8,20.7l1.2,18.7l10.6-18.7H126l-22,34.4C98.4,64,93,67,85.2,67c-4.6,0-7.9-1-10.6-2.7
		l0,0l5.7-10.9c2.2,1.5,4.1,2.1,5.9,2.1l0,0h0c0.3,0,0.6-0.1,0.9-0.2c0.3-0.1-2.9-33.2-3-34.5l0,0H98.8z M63.4,0l-9.1,33.7
		C48.9,54.1,35.4,65.3,6.4,67l0,0L5.1,53.1c12.2-1.6,18.9-6.4,21.3-14.8l0,0H3.9L0,0H63.4z M147.5,19.9c11.3,0,17.9,7.3,17.9,16.6
		c0,10.9-9,20.8-21.4,20.8c-11.3,0-17.9-7.3-17.9-16.6C126,29.8,135,19.9,147.5,19.9z M235.2,20.7l-9.4,35.1h-14.7l9.4-35.1H235.2z
		 M189.2,20.7l2.3,7.2l6-7.2h16l-16.4,17.8l7.1,17.3h-15l-2.4-7.5l-6.2,7.5h-16l16.6-18.1l-6.9-17H189.2z M146.5,32.1
		c-3.7,0-6.5,3.8-6.5,8.1c0,3,1.9,5.2,4.8,5.2c3.7,0,6.5-3.8,6.5-8.1C151.3,34.2,149.4,32.1,146.5,32.1z M233.4,0
		c4.4,0,7.3,3.6,6.5,8s-4.9,8-9.3,8c-4.4,0-7.3-3.6-6.5-8S229,0,233.4,0z"/>
</g>
</svg>
